<svg id="google_recaptcha-ar21" xmlns="http://www.w3.org/2000/svg" width="57.904" height="37.709" viewBox="0 0 57.904 37.709">
  <path id="Path_31" data-name="Path 31" d="M68.7,16.371l-.013-.536V5.7l-2.8,2.8a12.5,12.5,0,0,0-19.641.347l4.591,4.64A6.082,6.082,0,0,1,52.7,11.4a5.527,5.527,0,0,1,3.509-1.137,1.066,1.066,0,0,1,.444.072,6.053,6.053,0,0,1,4.628,2.788l-3.251,3.251,10.68,0" transform="translate(-27.229 -3.899)" fill="#1c3aa9"/>
  <path id="Path_32" data-name="Path 32" d="M55.135,3.9l-.536.013H44.466l2.8,2.8a12.5,12.5,0,0,0,.347,19.641l4.64-4.591a6.082,6.082,0,0,1-2.087-1.86A5.527,5.527,0,0,1,49.03,16.4a1.066,1.066,0,0,1,.072-.444,6.053,6.053,0,0,1,2.788-4.628l3.251,3.251,0-10.68" transform="translate(-26.236 -3.897)" fill="#4285f4"/>
  <path id="Path_33" data-name="Path 33" d="M42.668,21.2l.013.536V31.876l2.8-2.8a12.5,12.5,0,0,0,19.641-.347l-4.591-4.64a6.082,6.082,0,0,1-1.86,2.087,5.527,5.527,0,0,1-3.509,1.137,1.066,1.066,0,0,1-.444-.072,6.053,6.053,0,0,1-4.628-2.788L53.343,21.2c-4.118.016-8.767.025-10.68,0" transform="translate(-26.234 -8.701)" fill="#ababab"/>
  <path id="Path_34" data-name="Path 34" d="M32.364,43.521a2.887,2.887,0,0,0-1.263.267,2.6,2.6,0,0,0-.946.747,3.491,3.491,0,0,0-.589,1.177,5.359,5.359,0,0,0-.2,1.536v1.633a5.458,5.458,0,0,0,.2,1.542,3.715,3.715,0,0,0,.583,1.172,2.566,2.566,0,0,0,.91.747,2.7,2.7,0,0,0,1.2.26,3.308,3.308,0,0,0,1.2-.2,2.221,2.221,0,0,0,.867-.576,2.622,2.622,0,0,0,.54-.922,4.285,4.285,0,0,0,.231-1.226h-1.11a4.973,4.973,0,0,1-.146.9,1.647,1.647,0,0,1-.3.614,1.167,1.167,0,0,1-.51.352,2.343,2.343,0,0,1-.766.108,1.527,1.527,0,0,1-.826-.212,1.657,1.657,0,0,1-.553-.6,2.922,2.922,0,0,1-.3-.88,6.114,6.114,0,0,1-.091-1.086V47.236A5.462,5.462,0,0,1,30.6,46.1a2.677,2.677,0,0,1,.347-.868,1.62,1.62,0,0,1,.583-.553,1.667,1.667,0,0,1,.838-.2,1.811,1.811,0,0,1,.7.121,1.131,1.131,0,0,1,.485.364,1.671,1.671,0,0,1,.3.619,4.734,4.734,0,0,1,.139.9h1.123a4.69,4.69,0,0,0-.217-1.268,2.55,2.55,0,0,0-.54-.929,2.36,2.36,0,0,0-.844-.578,3.063,3.063,0,0,0-1.134-.2Zm27.414,0a2.887,2.887,0,0,0-1.263.267,2.6,2.6,0,0,0-.946.747,3.491,3.491,0,0,0-.589,1.177,5.359,5.359,0,0,0-.2,1.536v1.633a5.459,5.459,0,0,0,.2,1.542,3.716,3.716,0,0,0,.583,1.172,2.566,2.566,0,0,0,.91.747,2.7,2.7,0,0,0,1.2.261,3.308,3.308,0,0,0,1.2-.2,2.221,2.221,0,0,0,.867-.576,2.622,2.622,0,0,0,.54-.922,4.285,4.285,0,0,0,.231-1.226H61.4a4.974,4.974,0,0,1-.146.9,1.647,1.647,0,0,1-.3.614,1.167,1.167,0,0,1-.51.352,2.343,2.343,0,0,1-.766.108,1.527,1.527,0,0,1-.826-.212,1.657,1.657,0,0,1-.553-.6,2.922,2.922,0,0,1-.3-.88,6.114,6.114,0,0,1-.091-1.086V47.237A5.432,5.432,0,0,1,58.01,46.1a2.677,2.677,0,0,1,.347-.868,1.618,1.618,0,0,1,.583-.553,1.667,1.667,0,0,1,.838-.2,1.811,1.811,0,0,1,.7.121,1.131,1.131,0,0,1,.485.364,1.671,1.671,0,0,1,.3.619,4.733,4.733,0,0,1,.139.9h1.123a4.691,4.691,0,0,0-.217-1.268,2.55,2.55,0,0,0-.54-.929,2.36,2.36,0,0,0-.844-.578,3.063,3.063,0,0,0-1.134-.2Zm-21.015.121-2.846,8.838h1.141l.686-2.307h2.986l.7,2.307H42.57l-2.853-8.838Zm5.007,0v8.838h1.111V49.013h1.7a3.341,3.341,0,0,0,1.129-.176,2.056,2.056,0,0,0,.826-.522,2.133,2.133,0,0,0,.51-.838,3.458,3.458,0,0,0,.176-1.141,3.186,3.186,0,0,0-.176-1.081,2.362,2.362,0,0,0-.5-.856,2.247,2.247,0,0,0-.831-.564,2.973,2.973,0,0,0-1.129-.2Zm6.306,0V44.6h2.312v7.879H53.5V44.6h2.325v-.959Zm13.943,0v8.838h1.111V48.394h3.557v4.085H69.8V43.643H68.687v3.8H65.13v-3.8Zm10,0-2.846,8.838h1.141L73,50.174h2.986l.7,2.307h1.141l-2.853-8.838ZM44.881,44.6h1.7a1.5,1.5,0,0,1,.692.146,1.306,1.306,0,0,1,.473.389,1.56,1.56,0,0,1,.273.564,2.355,2.355,0,0,1,.091.656,2.492,2.492,0,0,1-.091.692,1.442,1.442,0,0,1-.273.54,1.233,1.233,0,0,1-.473.352,1.687,1.687,0,0,1-.692.127h-1.7Zm-5.645.6,1.208,4.019h-2.41Zm35.256,0L75.7,49.216H73.289Zm-52.289.6A1.227,1.227,0,0,0,21.48,46a1.807,1.807,0,0,0-.506.576l-.018-.667H19.92v6.568h1.074v-4.7a1.561,1.561,0,0,1,.431-.662,1.076,1.076,0,0,1,.722-.243l.249.012a2.13,2.13,0,0,1,.237.03l-.006-1.044a.369.369,0,0,0-.079-.025.778.778,0,0,0-.108-.03,1.2,1.2,0,0,0-.127-.018.638.638,0,0,0-.108-.012Zm3.612,0a2.559,2.559,0,0,0-.9.164,1.978,1.978,0,0,0-.777.54,2.856,2.856,0,0,0-.54.972,4.323,4.323,0,0,0-.207,1.463v.74a4.282,4.282,0,0,0,.176,1.305,2.5,2.5,0,0,0,.5.917,2.081,2.081,0,0,0,.808.535,3.024,3.024,0,0,0,1.062.176,3.1,3.1,0,0,0,.758-.085,2.824,2.824,0,0,0,.6-.219,2.109,2.109,0,0,0,.449-.316,2.362,2.362,0,0,0,.321-.364l-.558-.679a2.433,2.433,0,0,1-.285.3,2.027,2.027,0,0,1-.334.237,1.748,1.748,0,0,1-.4.152,2.051,2.051,0,0,1-.491.055,1.4,1.4,0,0,1-1.147-.48,2.409,2.409,0,0,1-.394-1.536v-.144h3.667V48.9a6.275,6.275,0,0,0-.127-1.329,2.639,2.639,0,0,0-.407-.972,1.763,1.763,0,0,0-.717-.6,2.379,2.379,0,0,0-1.056-.207Zm0,.922a1.209,1.209,0,0,1,.583.127.939.939,0,0,1,.364.358,1.648,1.648,0,0,1,.2.553,4.392,4.392,0,0,1,.085.7V48.6H24.461a3.885,3.885,0,0,1,.134-.917,1.621,1.621,0,0,1,.285-.576.96.96,0,0,1,.419-.3,1.517,1.517,0,0,1,.516-.085Z" transform="translate(-19.92 -14.896)" fill="#444"/>
</svg>
