<svg id="Group_35408" data-name="Group 35408" xmlns="http://www.w3.org/2000/svg" width="20" height="20" viewBox="0 0 20 20">
  <path id="Path_6629" data-name="Path 6629" d="M0,0H20V20H0Z" fill="none"/>
  <path id="Path_6630" data-name="Path 6630" d="M13.667,5.667,12,5.667A1.667,1.667,0,1,0,13.667,4,1.667,1.667,0,0,0,12,5.667" transform="translate(-2 -0.667)" fill="none" stroke="#000" stroke-linecap="round" stroke-linejoin="round" stroke-width="1.5"/>
  <path id="Path_6631" data-name="Path 6631" d="M4,6h6.667" transform="translate(-0.667 -1)" fill="none" stroke="#000" stroke-linecap="round" stroke-linejoin="round" stroke-width="1.5"/>
  <path id="Path_6632" data-name="Path 6632" d="M16,6h3.333" transform="translate(-2.667 -1)" fill="none" stroke="#000" stroke-linecap="round" stroke-linejoin="round" stroke-width="1.5"/>
  <path id="Path_6633" data-name="Path 6633" d="M7.667,11.667,6,11.667A1.667,1.667,0,1,0,7.667,10,1.667,1.667,0,0,0,6,11.667" transform="translate(-1 -1.667)" fill="none" stroke="#000" stroke-linecap="round" stroke-linejoin="round" stroke-width="1.5"/>
  <path id="Path_6634" data-name="Path 6634" d="M4,12H5.667" transform="translate(-0.667 -2)" fill="none" stroke="#000" stroke-linecap="round" stroke-linejoin="round" stroke-width="1.5"/>
  <path id="Path_6635" data-name="Path 6635" d="M10,12h8.333" transform="translate(-1.667 -2)" fill="none" stroke="#000" stroke-linecap="round" stroke-linejoin="round" stroke-width="1.5"/>
  <path id="Path_6636" data-name="Path 6636" d="M16.667,17.667m-1.667,0A1.667,1.667,0,1,0,16.667,16,1.667,1.667,0,0,0,15,17.667" transform="translate(-2.5 -2.667)" fill="none" stroke="#000" stroke-linecap="round" stroke-linejoin="round" stroke-width="1.5"/>
  <path id="Path_6637" data-name="Path 6637" d="M4,18h9.167" transform="translate(-0.667 -3)" fill="none" stroke="#000" stroke-linecap="round" stroke-linejoin="round" stroke-width="1.5"/>
  <path id="Path_6638" data-name="Path 6638" d="M19,18h.833" transform="translate(-3.167 -3)" fill="none" stroke="#000" stroke-linecap="round" stroke-linejoin="round" stroke-width="1.5"/>
</svg>
