<svg xmlns="http://www.w3.org/2000/svg" width="101" height="39" viewBox="0 0 101 39">
  <g id="Group_35388" data-name="Group 35388" transform="translate(17669 17826)">
    <g id="Group_35382" data-name="Group 35382" transform="translate(-17669 -17826)">
      <circle id="Ellipse_284" data-name="Ellipse 284" cx="19.5" cy="19.5" r="19.5" fill="#f5fadf"/>
      <path id="Path_6603" data-name="Path 6603" d="M346.592,361.823a5.407,5.407,0,0,1-3.2-.944,6.014,6.014,0,0,1-2.047-2.741,13.407,13.407,0,0,1,.008-8.632,5.918,5.918,0,0,1,2.047-2.719,5.917,5.917,0,0,1,6.389,0,5.851,5.851,0,0,1,2.047,2.719,11.53,11.53,0,0,1,.717,4.3,11.7,11.7,0,0,1-.717,4.335,5.9,5.9,0,0,1-2.047,2.734A5.373,5.373,0,0,1,346.592,361.823Zm0-2.364a2.558,2.558,0,0,0,2.288-1.427,8.453,8.453,0,0,0,.846-4.221,10.68,10.68,0,0,0-.385-3.1,4.108,4.108,0,0,0-1.087-1.888,2.381,2.381,0,0,0-1.661-.642,2.55,2.55,0,0,0-2.281,1.435,8.46,8.46,0,0,0-.846,4.191,10.833,10.833,0,0,0,.37,3.111,4.166,4.166,0,0,0,1.087,1.9A2.406,2.406,0,0,0,346.592,359.459Z" transform="translate(-329.579 -334.459)" fill="#023d65"/>
      <path id="Path_6604" data-name="Path 6604" d="M471.864,361.823a5.407,5.407,0,0,1-3.2-.944,6.014,6.014,0,0,1-2.047-2.741,13.406,13.406,0,0,1,.008-8.632,5.918,5.918,0,0,1,2.047-2.719,5.917,5.917,0,0,1,6.389,0,5.851,5.851,0,0,1,2.047,2.719,11.529,11.529,0,0,1,.717,4.3,11.7,11.7,0,0,1-.717,4.335,5.9,5.9,0,0,1-2.047,2.734A5.372,5.372,0,0,1,471.864,361.823Zm0-2.364a2.557,2.557,0,0,0,2.288-1.427,8.453,8.453,0,0,0,.846-4.221,10.68,10.68,0,0,0-.385-3.1,4.108,4.108,0,0,0-1.087-1.888,2.381,2.381,0,0,0-1.661-.642,2.551,2.551,0,0,0-2.281,1.435,8.462,8.462,0,0,0-.846,4.191,10.838,10.838,0,0,0,.37,3.111,4.166,4.166,0,0,0,1.087,1.9A2.406,2.406,0,0,0,471.864,359.459Z" transform="translate(-449.523 -334.459)" fill="#023d65"/>
      <path id="Path_6605" data-name="Path 6605" d="M363.976,856.455l-.64-.317a1.95,1.95,0,0,1-.457-.3,1.042,1.042,0,0,1-.256-.342.76.76,0,0,1-.067-.372,1.1,1.1,0,0,1,.351-.712.826.826,0,0,1,.339-.18,1.086,1.086,0,0,1,.433-.015,1.8,1.8,0,0,1,.52.175l.642.319Zm-.014-1.8a.975.975,0,0,0-.3-.1.608.608,0,0,0-.256.018.527.527,0,0,0-.21.121.741.741,0,0,0-.157.217.7.7,0,0,0-.074.251.5.5,0,0,0,.034.235.6.6,0,0,0,.143.21,1,1,0,0,0,.259.177l.373.185.56-1.131Z" transform="translate(-350.567 -821.188)"/>
      <path id="Path_6606" data-name="Path 6606" d="M279.933,801.393a.988.988,0,0,1-.329.247.912.912,0,0,1-.378.083,1.037,1.037,0,0,1-.4-.082,1.463,1.463,0,0,1-.677-.605,1.02,1.02,0,0,1-.126-.387.9.9,0,0,1,.039-.386.987.987,0,0,1,.209-.355,1.008,1.008,0,0,1,.332-.25.926.926,0,0,1,.382-.085,1.041,1.041,0,0,1,.4.079,1.439,1.439,0,0,1,.677.605,1.057,1.057,0,0,1,.123.389.935.935,0,0,1-.043.388A1.008,1.008,0,0,1,279.933,801.393Zm-.295-.263a.663.663,0,0,0,.141-.238.616.616,0,0,0,.025-.255.7.7,0,0,0-.083-.25.867.867,0,0,0-.183-.225.851.851,0,0,0-.243-.156.677.677,0,0,0-.257-.054.616.616,0,0,0-.25.054.65.65,0,0,0-.222.166.641.641,0,0,0-.139.238.582.582,0,0,0-.022.251.657.657,0,0,0,.085.247.9.9,0,0,0,.184.223.909.909,0,0,0,.243.158.673.673,0,0,0,.255.057.582.582,0,0,0,.247-.05A.654.654,0,0,0,279.638,801.13Z" transform="translate(-269.626 -768.884)"/>
      <path id="Path_6607" data-name="Path 6607" d="M205.079,728.276l-.214-.332.9-.581a.714.714,0,0,0,.178-.158.455.455,0,0,0,.088-.184.476.476,0,0,0-.005-.208.857.857,0,0,0-.266-.414.464.464,0,0,0-.188-.091.448.448,0,0,0-.2,0,.714.714,0,0,0-.218.1l-.9.581-.214-.332.942-.606a.906.906,0,0,1,.328-.134.742.742,0,0,1,.328.013.85.85,0,0,1,.309.161,1.394,1.394,0,0,1,.442.686.852.852,0,0,1,.018.347.741.741,0,0,1-.124.3.907.907,0,0,1-.258.243Z" transform="translate(-198.79 -698.347)"/>
      <path id="Path_6608" data-name="Path 6608" d="M167.651,640.091l-.318-.99a1.189,1.189,0,0,1-.062-.328.7.7,0,0,1,.034-.258.442.442,0,0,1,.119-.184.508.508,0,0,1,.532-.1.516.516,0,0,1,.136-.254.617.617,0,0,1,.255-.151.626.626,0,0,1,.248-.031.48.48,0,0,1,.221.074.648.648,0,0,1,.186.186,1.19,1.19,0,0,1,.141.3l.364,1.133Zm.347-1.364q-.016-.049-.027-.1a.245.245,0,0,0-.2-.024.186.186,0,0,0-.13.129.415.415,0,0,0,.018.248l.2.624.381-.122Zm.813-.269a.369.369,0,0,0-.139-.209.235.235,0,0,0-.209-.02.239.239,0,0,0-.16.139.365.365,0,0,0,.008.251l.246.766.5-.161Z" transform="translate(-163.588 -613.986)"/>
      <path id="Path_6609" data-name="Path 6609" d="M149.245,555.493l-.028-.394,1.6-.114-.081-1.13.345-.025.109,1.524Z" transform="translate(-146.303 -533.592)"/>
      <path id="Path_6610" data-name="Path 6610" d="M147.237,470.266l.256-1.639.342.054-.2,1.248.384.06.173-1.106.321.05-.173,1.105.536.084.2-1.274.341.053-.26,1.664Z" transform="translate(-144.407 -452.013)"/>
      <path id="Path_6611" data-name="Path 6611" d="M200.849,303.732l-.08-.284-.671.959-.276-.193,1.092-1.561.5,1.678.087.3.7-1,.276.193-1.112,1.59Z" transform="translate(-194.757 -293.098)"/>
      <path id="Path_6612" data-name="Path 6612" d="M259.011,237.559l1.246-1.1.229.26-.949.834.257.292.84-.739.215.244-.84.739.358.407.969-.851.228.259-1.265,1.112Z" transform="translate(-251.427 -229.724)"/>
      <path id="Path_6613" data-name="Path 6613" d="M332.445,189.354l.882-.451a1.414,1.414,0,0,1,.368-.135.743.743,0,0,1,.3,0,.539.539,0,0,1,.241.119.735.735,0,0,1,.179.232.8.8,0,0,1,.071.2.6.6,0,0,1,.01.2.614.614,0,0,1-.054.193.754.754,0,0,1-.124.182l.661.362-.43.22-.578-.326-.01.005-.533.271.253.494-.352.18Zm1.37.48a.656.656,0,0,0,.162-.112.4.4,0,0,0,.092-.13.288.288,0,0,0,.023-.141.389.389,0,0,0-.044-.148.3.3,0,0,0-.214-.173.534.534,0,0,0-.341.074l-.539.276.322.63Z" transform="translate(-321.738 -184.04)"/>
      <path id="Path_6614" data-name="Path 6614" d="M427.467,155.282a.987.987,0,0,1,0-.412.911.911,0,0,1,.159-.353,1.035,1.035,0,0,1,.3-.271,1.463,1.463,0,0,1,.89-.184,1.019,1.019,0,0,1,.385.129.906.906,0,0,1,.287.261.987.987,0,0,1,.161.379,1.008,1.008,0,0,1,0,.415.927.927,0,0,1-.159.357,1.041,1.041,0,0,1-.3.275,1.44,1.44,0,0,1-.89.184,1.057,1.057,0,0,1-.386-.133.935.935,0,0,1-.286-.265A1.007,1.007,0,0,1,427.467,155.282Zm.387-.08a.663.663,0,0,0,.107.255.616.616,0,0,0,.189.172.694.694,0,0,0,.25.082.865.865,0,0,0,.29-.013.853.853,0,0,0,.27-.1.677.677,0,0,0,.2-.174.615.615,0,0,0,.106-.233.651.651,0,0,0,0-.277.641.641,0,0,0-.108-.254.58.58,0,0,0-.188-.167.656.656,0,0,0-.249-.078.9.9,0,0,0-.288.015.909.909,0,0,0-.272.1.672.672,0,0,0-.2.171.582.582,0,0,0-.107.228A.655.655,0,0,0,427.854,155.2Z" transform="translate(-412.697 -150.817)"/>
      <path id="Path_6615" data-name="Path 6615" d="M606.471,156.049q.084.088.174.166a1.889,1.889,0,0,0,.194.143,1.859,1.859,0,0,0,.221.119,2.074,2.074,0,0,0,.259.1,1.7,1.7,0,0,0,.293.065.752.752,0,0,0,.21,0,.284.284,0,0,0,.137-.06.222.222,0,0,0,.07-.107.192.192,0,0,0-.036-.185.479.479,0,0,0-.243-.138,1.386,1.386,0,0,0-.167-.039l-.181-.031-.18-.029a1.506,1.506,0,0,1-.163-.039.936.936,0,0,1-.231-.1.675.675,0,0,1-.175-.158.5.5,0,0,1-.092-.2.486.486,0,0,1,.015-.241.608.608,0,0,1,.066-.145.532.532,0,0,1,.11-.123.6.6,0,0,1,.158-.092.735.735,0,0,1,.206-.05,1.2,1.2,0,0,1,.259.005,1.8,1.8,0,0,1,.317.068,2.356,2.356,0,0,1,.247.09,2.522,2.522,0,0,1,.234.112,2.334,2.334,0,0,1,.213.131,1.917,1.917,0,0,1,.183.14l-.258.255a1.731,1.731,0,0,0-.15-.114,1.966,1.966,0,0,0-.174-.108,2.153,2.153,0,0,0-.2-.1,1.8,1.8,0,0,0-.211-.078,1.263,1.263,0,0,0-.265-.055.573.573,0,0,0-.177.01.221.221,0,0,0-.107.054.191.191,0,0,0-.049.079.169.169,0,0,0,.034.16.42.42,0,0,0,.213.122,1.44,1.44,0,0,0,.144.034l.176.031.187.036a1.851,1.851,0,0,1,.183.045,1.085,1.085,0,0,1,.28.125.633.633,0,0,1,.182.171.461.461,0,0,1,.08.205.541.541,0,0,1-.021.23.577.577,0,0,1-.162.265.659.659,0,0,1-.276.148,1.135,1.135,0,0,1-.371.031,2.045,2.045,0,0,1-.446-.086,2.393,2.393,0,0,1-.3-.113,2.421,2.421,0,0,1-.272-.142,2.459,2.459,0,0,1-.236-.166,2.1,2.1,0,0,1-.2-.182Z" transform="translate(-583.828 -151.613)"/>
      <path id="Path_6616" data-name="Path 6616" d="M706.355,195.425a.989.989,0,0,1,.287-.3.912.912,0,0,1,.361-.141,1.036,1.036,0,0,1,.406.019,1.464,1.464,0,0,1,.763.493,1.021,1.021,0,0,1,.184.362.9.9,0,0,1,.021.387.989.989,0,0,1-.151.383,1.008,1.008,0,0,1-.289.3.927.927,0,0,1-.364.143,1.04,1.04,0,0,1-.408-.016,1.44,1.44,0,0,1-.763-.493,1.056,1.056,0,0,1-.182-.365.934.934,0,0,1-.018-.39A1.007,1.007,0,0,1,706.355,195.425Zm.332.214a.663.663,0,0,0-.1.257.616.616,0,0,0,.015.256.694.694,0,0,0,.121.234.864.864,0,0,0,.216.194.854.854,0,0,0,.265.116.678.678,0,0,0,.263.014.616.616,0,0,0,.239-.092.65.65,0,0,0,.193-.2.641.641,0,0,0,.1-.257.581.581,0,0,0-.017-.251.658.658,0,0,0-.123-.23.9.9,0,0,0-.216-.191.91.91,0,0,0-.264-.119.673.673,0,0,0-.261-.017.582.582,0,0,0-.236.088A.654.654,0,0,0,706.687,195.639Z" transform="translate(-679.587 -190.001)"/>
      <path id="Path_6617" data-name="Path 6617" d="M788.826,252.529a.956.956,0,0,1,.342-.2.89.89,0,0,1,.385-.038,1.083,1.083,0,0,1,.4.133,1.462,1.462,0,0,1,.38.314,1.82,1.82,0,0,1,.253.358,1.361,1.361,0,0,1,.137.374l-.344.063a.632.632,0,0,0-.034-.128.992.992,0,0,0-.062-.135,1.317,1.317,0,0,0-.082-.136,1.262,1.262,0,0,0-.1-.125,1.1,1.1,0,0,0-.26-.221.722.722,0,0,0-.264-.1.559.559,0,0,0-.253.018.612.612,0,0,0-.226.13.636.636,0,0,0-.162.217.6.6,0,0,0-.051.257.776.776,0,0,0,.066.281,1.112,1.112,0,0,0,.189.287,1.2,1.2,0,0,0,.123.119,1.423,1.423,0,0,0,.134.1,1.468,1.468,0,0,0,.141.08,1.31,1.31,0,0,0,.141.058l-.1.335a1.356,1.356,0,0,1-.365-.169,1.676,1.676,0,0,1-.338-.295,1.635,1.635,0,0,1-.292-.445,1.1,1.1,0,0,1-.091-.426.894.894,0,0,1,.088-.385A1.041,1.041,0,0,1,788.826,252.529Z" transform="translate(-758.387 -244.874)"/>
      <path id="Path_6618" data-name="Path 6618" d="M839.532,323.512l.2.341-1.672,1-.2-.341Z" transform="translate(-805.657 -313.07)"/>
      <path id="Path_6619" data-name="Path 6619" d="M860.41,389.377l.145.393-1.5,1.557-.143-.389.254-.259-.393-1.068-.36-.028-.144-.391Zm-1,1.043.685-.7-.972-.079Z" transform="translate(-825.195 -375.957)"/>
      <path id="Path_6620" data-name="Path 6620" d="M889.792,476.035l.046.392-1.591.185.13,1.125-.344.04-.176-1.517Z" transform="translate(-853.528 -459.106)"/>
      <path id="Path_6621" data-name="Path 6621" d="M871.459,627.2a.959.959,0,0,1,.339.2.891.891,0,0,1,.219.318,1.084,1.084,0,0,1,.076.413,1.457,1.457,0,0,1-.091.485,1.833,1.833,0,0,1-.191.4,1.373,1.373,0,0,1-.261.3l-.221-.271a.636.636,0,0,0,.1-.092.988.988,0,0,0,.089-.119,1.3,1.3,0,0,0,.079-.137,1.29,1.29,0,0,0,.062-.146,1.111,1.111,0,0,0,.068-.334.723.723,0,0,0-.04-.28.558.558,0,0,0-.138-.213.614.614,0,0,0-.223-.134.636.636,0,0,0-.269-.037.6.6,0,0,0-.25.079.776.776,0,0,0-.214.194,1.11,1.11,0,0,0-.159.3,1.178,1.178,0,0,0-.045.165,1.3,1.3,0,0,0-.024.327,1.311,1.311,0,0,0,.018.152l-.343.072a1.362,1.362,0,0,1-.029-.4,1.676,1.676,0,0,1,.094-.438,1.636,1.636,0,0,1,.249-.471,1.1,1.1,0,0,1,.328-.286.891.891,0,0,1,.38-.109A1.042,1.042,0,0,1,871.459,627.2Z" transform="translate(-836.434 -603.784)"/>
      <path id="Path_6622" data-name="Path 6622" d="M830.218,709.388l-.216.331-1.34-.876-.62.948-.29-.19.836-1.279Z" transform="translate(-795.979 -681.514)"/>
      <path id="Path_6623" data-name="Path 6623" d="M782.6,778.147l-.288.271-.735-.782a.712.712,0,0,0-.188-.147.456.456,0,0,0-.2-.053.474.474,0,0,0-.2.043.854.854,0,0,0-.359.337.464.464,0,0,0-.056.2.45.45,0,0,0,.04.2.71.71,0,0,0,.135.2l.735.782-.288.271-.767-.816a.907.907,0,0,1-.192-.3.742.742,0,0,1-.047-.325.852.852,0,0,1,.1-.334,1.255,1.255,0,0,1,.255-.324,1.268,1.268,0,0,1,.34-.235.851.851,0,0,1,.338-.08.741.741,0,0,1,.321.067.906.906,0,0,1,.286.21Z" transform="translate(-750.437 -747.322)"/>
      <path id="Path_6624" data-name="Path 6624" d="M703.282,831.926l-.916.493a1.187,1.187,0,0,1-.311.121.7.7,0,0,1-.26.014.443.443,0,0,1-.2-.084.508.508,0,0,1-.191-.506.515.515,0,0,1-.275-.087.618.618,0,0,1-.2-.223.627.627,0,0,1-.076-.238.48.48,0,0,1,.033-.231.649.649,0,0,1,.15-.216,1.2,1.2,0,0,1,.274-.194l1.048-.564Zm-1.4-.094q-.045.024-.09.044a.246.246,0,0,0,.013.2.186.186,0,0,0,.151.1.415.415,0,0,0,.241-.063l.577-.31-.189-.352Zm-.412-.75a.369.369,0,0,0-.18.175.236.236,0,0,0,.018.21.239.239,0,0,0,.166.132.365.365,0,0,0,.246-.053l.709-.381-.249-.463Z" transform="translate(-674.477 -798.218)"/>
      <circle id="Ellipse_286" data-name="Ellipse 286" cx="1.5" cy="1.5" r="1.5" transform="translate(19 34)" fill="#023d65"/>
    </g>
    <text id="Double_Zero_Social_Club" data-name="Double Zero 
Social Club" transform="translate(-17626 -17809)" fill="#f5fadf" font-size="7" font-family="KronaOne-Regular, Krona One"><tspan x="0" y="0">Double Zero </tspan><tspan x="0" y="9">Social Club</tspan></text>
  </g>
</svg>
